<?xml version="1.0" encoding="UTF-8"?> <svg xmlns="http://www.w3.org/2000/svg" width="547.859" height="547.864" viewBox="0 0 547.859 547.864"> <g id="Сгруппировать_543" data-name="Сгруппировать 543" transform="translate(-123.074 -123.066)"> <path id="Контур_83" data-name="Контур 83" d="M94.516,187.354l-1.977-.21,2.6-24.793,1.977.21Z" transform="translate(274.842 482.181)" fill="#51fec0"></path> <path id="Контур_84" data-name="Контур 84" d="M108.285,56.357l-1.977-.21,2.6-24.8,1.977.21Z" transform="translate(315.734 93.111)" fill="#51fec0"></path> <rect id="Прямоугольник_166" data-name="Прямоугольник 166" width="24.93" height="1.982" transform="translate(339.072 664.735) rotate(-77.97)" fill="#024ef9"></rect> <rect id="Прямоугольник_167" data-name="Прямоугольник 167" width="24.934" height="1.982" transform="translate(447.797 153.233) rotate(-77.971)" fill="#024ef9"></rect> <rect id="Прямоугольник_168" data-name="Прямоугольник 168" width="24.933" height="1.981" transform="translate(311.415 657.221) rotate(-72.037)" fill="#024ef9"></rect> <rect id="Прямоугольник_169" data-name="Прямоугольник 169" width="24.933" height="1.981" transform="translate(473.011 159.886) rotate(-72.038)" fill="#024ef9"></rect> <rect id="Прямоугольник_170" data-name="Прямоугольник 170" width="24.931" height="1.985" transform="translate(284.687 646.851) rotate(-66.049)" fill="#024ef9"></rect> <rect id="Прямоугольник_171" data-name="Прямоугольник 171" width="24.932" height="1.985" transform="translate(497.382 169.13) rotate(-66.05)" fill="#024ef9"></rect> <path id="Контур_85" data-name="Контур 85" d="M67.006,176.774l-1.723-.992,12.466-21.589,1.723.993Z" transform="translate(193.891 457.953)" fill="#51fec0"></path> <path id="Контур_86" data-name="Контур 86" d="M132.866,62.7l-1.723-.992,12.47-21.589,1.723.992Z" transform="translate(389.495 119.155)" fill="#51fec0"></path> <rect id="Прямоугольник_172" data-name="Прямоугольник 172" width="24.929" height="1.981" transform="matrix(0.587, -0.81, 0.81, 0.587, 235.194, 618.039)" fill="#024ef9"></rect> <rect id="Прямоугольник_173" data-name="Прямоугольник 173" width="24.929" height="1.981" transform="translate(542.566 194.978) rotate(-54.049)" fill="#024ef9"></rect> <rect id="Прямоугольник_174" data-name="Прямоугольник 174" width="24.931" height="1.982" transform="matrix(0.669, -0.743, 0.743, 0.669, 212.97, 599.908)" fill="#024ef9"></rect> <rect id="Прямоугольник_175" data-name="Прямоугольник 175" width="24.931" height="1.982" transform="matrix(0.669, -0.743, 0.743, 0.669, 562.88, 211.295)" fill="#024ef9"></rect> <rect id="Прямоугольник_176" data-name="Прямоугольник 176" width="24.931" height="1.982" transform="matrix(0.743, -0.669, 0.669, 0.743, 192.766, 579.558)" fill="#024ef9"></rect> <rect id="Прямоугольник_177" data-name="Прямоугольник 177" width="24.934" height="1.982" transform="translate(581.379 229.651) rotate(-41.998)" fill="#024ef9"></rect> <rect id="Прямоугольник_178" data-name="Прямоугольник 178" width="24.933" height="1.983" transform="matrix(0.81, -0.587, 0.587, 0.81, 174.798, 557.203)" fill="#024ef9"></rect> <rect id="Прямоугольник_179" data-name="Прямоугольник 179" width="24.933" height="1.983" transform="translate(597.858 249.831) rotate(-35.953)" fill="#024ef9"></rect> <rect id="Прямоугольник_180" data-name="Прямоугольник 180" width="24.928" height="1.987" transform="translate(159.268 533.093) rotate(-29.944)" fill="#024ef9"></rect> <rect id="Прямоугольник_181" data-name="Прямоугольник 181" width="24.932" height="1.987" transform="translate(612.139 271.629) rotate(-29.944)" fill="#024ef9"></rect> <rect id="Прямоугольник_182" data-name="Прямоугольник 182" width="24.932" height="1.985" transform="matrix(0.914, -0.406, 0.406, 0.914, 146.344, 507.502)" fill="#024ef9"></rect> <rect id="Прямоугольник_183" data-name="Прямоугольник 183" width="24.932" height="1.985" transform="matrix(0.914, -0.406, 0.406, 0.914, 624.065, 294.805)" fill="#024ef9"></rect> <rect id="Прямоугольник_184" data-name="Прямоугольник 184" width="24.93" height="1.983" transform="translate(136.17 480.699) rotate(-17.964)" fill="#024ef9"></rect> <rect id="Прямоугольник_185" data-name="Прямоугольник 185" width="24.93" height="1.983" transform="translate(633.509 319.104) rotate(-17.964)" fill="#024ef9"></rect> <rect id="Прямоугольник_186" data-name="Прямоугольник 186" width="24.933" height="1.981" transform="matrix(0.978, -0.208, 0.208, 0.978, 128.85, 452.99)" fill="#024ef9"></rect> <rect id="Прямоугольник_187" data-name="Прямоугольник 187" width="24.933" height="1.981" transform="translate(640.355 344.269) rotate(-12.031)" fill="#024ef9"></rect> <path id="Контур_87" data-name="Контур 87" d="M31.562,110.892l-.21-1.977,24.793-2.608.21,1.977Z" transform="translate(93.113 315.731)" fill="#51fec0"></path> <path id="Контур_88" data-name="Контур 88" d="M162.561,97.124l-.21-1.977,24.8-2.608.21,1.977Z" transform="translate(482.181 274.839)" fill="#51fec0"></path> <rect id="Прямоугольник_188" data-name="Прямоугольник 188" width="24.932" height="1.985" transform="translate(123.074 396.007)" fill="#51fec0"></rect> <rect id="Прямоугольник_189" data-name="Прямоугольник 189" width="24.932" height="1.985" transform="translate(646.002 396.007)" fill="#51fec0"></rect> <path id="Контур_89" data-name="Контур 89" d="M56.144,97.124,31.352,94.515l.21-1.977,24.793,2.608Z" transform="translate(93.114 274.839)" fill="#51fec0"></path> <path id="Контур_90" data-name="Контур 90" d="M187.147,110.892l-24.8-2.608.21-1.977,24.8,2.608Z" transform="translate(482.182 315.731)" fill="#51fec0"></path> <rect id="Прямоугольник_190" data-name="Прямоугольник 190" width="1.981" height="24.933" transform="translate(128.85 341.016) rotate(-77.998)" fill="#024ef9"></rect> <rect id="Прямоугольник_191" data-name="Прямоугольник 191" width="1.981" height="24.933" transform="translate(640.355 449.737) rotate(-77.998)" fill="#024ef9"></rect> <rect id="Прямоугольник_192" data-name="Прямоугольник 192" width="1.983" height="24.93" transform="translate(136.17 313.295) rotate(-72.007)" fill="#024ef9"></rect> <rect id="Прямоугольник_193" data-name="Прямоугольник 193" width="1.983" height="24.93" transform="matrix(0.309, -0.951, 0.951, 0.309, 633.51, 474.89)" fill="#024ef9"></rect> <rect id="Прямоугольник_194" data-name="Прямоугольник 194" width="1.985" height="24.932" transform="translate(146.348 286.486) rotate(-65.994)" fill="#024ef9"></rect> <rect id="Прямоугольник_195" data-name="Прямоугольник 195" width="1.985" height="24.933" transform="translate(624.069 499.183) rotate(-65.994)" fill="#024ef9"></rect> <rect id="Прямоугольник_196" data-name="Прямоугольник 196" width="1.987" height="24.928" transform="matrix(0.5, -0.866, 0.866, 0.5, 159.275, 260.895)" fill="#024ef9"></rect> <rect id="Прямоугольник_197" data-name="Прямоугольник 197" width="1.987" height="24.932" transform="translate(612.146 522.36) rotate(-60.002)" fill="#024ef9"></rect> <rect id="Прямоугольник_198" data-name="Прямоугольник 198" width="1.983" height="24.933" transform="matrix(0.588, -0.809, 0.809, 0.588, 174.803, 236.79)" fill="#024ef9"></rect> <rect id="Прямоугольник_199" data-name="Прямоугольник 199" width="1.983" height="24.933" transform="translate(597.863 544.162) rotate(-54.004)" fill="#024ef9"></rect> <rect id="Прямоугольник_200" data-name="Прямоугольник 200" width="1.982" height="24.934" transform="matrix(0.669, -0.743, 0.743, 0.669, 192.766, 214.439)" fill="#024ef9"></rect> <rect id="Прямоугольник_201" data-name="Прямоугольник 201" width="1.982" height="24.931" transform="translate(581.38 564.349) rotate(-48.001)" fill="#024ef9"></rect> <rect id="Прямоугольник_202" data-name="Прямоугольник 202" width="1.982" height="24.931" transform="translate(212.97 194.092) rotate(-41.999)" fill="#024ef9"></rect> <rect id="Прямоугольник_203" data-name="Прямоугольник 203" width="1.982" height="24.931" transform="translate(562.88 582.706) rotate(-41.999)" fill="#024ef9"></rect> <rect id="Прямоугольник_204" data-name="Прямоугольник 204" width="1.981" height="24.929" transform="translate(235.187 175.968) rotate(-36.001)" fill="#024ef9"></rect> <rect id="Прямоугольник_205" data-name="Прямоугольник 205" width="1.981" height="24.929" transform="translate(542.559 599.029) rotate(-36.001)" fill="#024ef9"></rect> <path id="Контур_91" data-name="Контур 91" d="M77.749,62.7,65.283,41.112l1.723-.992L79.472,61.708Z" transform="translate(193.891 119.155)" fill="#51fec0"></path> <path id="Контур_92" data-name="Контур 92" d="M143.613,176.774l-12.47-21.589,1.723-.993,12.47,21.589Z" transform="translate(389.495 457.953)" fill="#51fec0"></path> <rect id="Прямоугольник_206" data-name="Прямоугольник 206" width="1.985" height="24.931" transform="translate(284.677 147.156) rotate(-23.998)" fill="#024ef9"></rect> <rect id="Прямоугольник_207" data-name="Прямоугольник 207" width="1.985" height="24.932" transform="translate(497.37 624.878) rotate(-24.006)" fill="#024ef9"></rect> <rect id="Прямоугольник_208" data-name="Прямоугольник 208" width="1.98" height="24.933" transform="matrix(0.951, -0.309, 0.309, 0.951, 311.41, 136.782)" fill="#024ef9"></rect> <rect id="Прямоугольник_209" data-name="Прямоугольник 209" width="1.98" height="24.933" transform="translate(473.006 634.117) rotate(-17.994)" fill="#024ef9"></rect> <rect id="Прямоугольник_210" data-name="Прямоугольник 210" width="1.982" height="24.934" transform="translate(339.078 129.258) rotate(-12.001)" fill="#024ef9"></rect> <rect id="Прямоугольник_211" data-name="Прямоугольник 211" width="1.982" height="24.93" transform="translate(447.803 640.763) rotate(-12.002)" fill="#024ef9"></rect> <path id="Контур_93" data-name="Контур 93" d="M95.144,56.357l-2.6-24.8,1.977-.21,2.6,24.8Z" transform="translate(274.842 93.111)" fill="#51fec0"></path> <path id="Контур_94" data-name="Контур 94" d="M108.912,187.354l-2.6-24.793,1.977-.21,2.6,24.793Z" transform="translate(315.734 482.181)" fill="#51fec0"></path> <rect id="Прямоугольник_212" data-name="Прямоугольник 212" width="1.985" height="24.932" transform="translate(396.008 123.066)" fill="#51fec0"></rect> <rect id="Прямоугольник_213" data-name="Прямоугольник 213" width="1.985" height="24.928" transform="translate(396.008 646.002)" fill="#51fec0"></rect> <rect id="Прямоугольник_214" data-name="Прямоугольник 214" width="52.722" height="1.988" transform="translate(259.195 633.748) rotate(-60.057)" fill="#024ef9"></rect> <path id="Контур_95" data-name="Контур 95" d="M129.366,86.767l-1.723-.992,26.365-45.655,1.723.993Z" transform="translate(379.101 119.154)" fill="#51fec0"></path> <rect id="Прямоугольник_215" data-name="Прямоугольник 215" width="52.721" height="1.987" transform="translate(159.262 533.082) rotate(-29.944)" fill="#024ef9"></rect> <rect id="Прямоугольник_216" data-name="Прямоугольник 216" width="52.721" height="1.987" transform="translate(588.067 285.511) rotate(-29.944)" fill="#024ef9"></rect> <rect id="Прямоугольник_217" data-name="Прямоугольник 217" width="52.718" height="1.985" transform="translate(123.074 396.007)" fill="#51fec0"></rect> <rect id="Прямоугольник_218" data-name="Прямоугольник 218" width="52.722" height="1.985" transform="translate(618.212 396.007)" fill="#51fec0"></rect> <rect id="Прямоугольник_219" data-name="Прямоугольник 219" width="1.987" height="52.721" transform="matrix(0.5, -0.866, 0.866, 0.5, 159.273, 260.894)" fill="#024ef9"></rect> <rect id="Прямоугольник_220" data-name="Прямоугольник 220" width="1.987" height="52.721" transform="translate(588.08 508.465) rotate(-60)" fill="#024ef9"></rect> <path id="Контур_96" data-name="Контур 96" d="M91.644,86.767,65.283,41.112l1.723-.993L93.367,85.774Z" transform="translate(193.891 119.154)" fill="#51fec0"></path> <path id="Контур_97" data-name="Контур 97" d="M154.008,194.781l-26.365-45.659,1.723-.992,26.365,45.659Z" transform="translate(379.101 439.946)" fill="#51fec0"></path> <rect id="Прямоугольник_221" data-name="Прямоугольник 221" width="1.985" height="52.722" transform="translate(396.008 123.066)" fill="#51fec0"></rect> <rect id="Прямоугольник_222" data-name="Прямоугольник 222" width="1.985" height="52.718" transform="translate(396.008 618.212)" fill="#51fec0"></rect> </g> </svg> 