<?xml version="1.0" encoding="UTF-8"?> <svg xmlns="http://www.w3.org/2000/svg" width="414.648" height="414.651" viewBox="0 0 414.648 414.651"> <g id="Сгруппировать_543" data-name="Сгруппировать 543" transform="translate(-93.148 -93.143)"> <path id="Контур_83" data-name="Контур 83" d="M94.036,181.274l-1.5-.159L94.51,162.35l1.5.159Z" transform="translate(185.513 325.463)" fill="#51fec0"></path> <path id="Контур_84" data-name="Контур 84" d="M107.8,50.277l-1.5-.159,1.971-18.767,1.5.159Z" transform="translate(213.114 62.848)" fill="#51fec0"></path> <rect id="Прямоугольник_166" data-name="Прямоугольник 166" width="18.869" height="1.5" transform="translate(256.627 503.104) rotate(-77.97)" fill="#024ef9"></rect> <rect id="Прямоугольник_167" data-name="Прямоугольник 167" width="18.872" height="1.5" transform="translate(338.915 115.975) rotate(-77.971)" fill="#024ef9"></rect> <rect id="Прямоугольник_168" data-name="Прямоугольник 168" width="18.87" height="1.499" transform="translate(235.694 497.418) rotate(-72.037)" fill="#024ef9"></rect> <rect id="Прямоугольник_169" data-name="Прямоугольник 169" width="18.87" height="1.499" transform="translate(357.998 121.01) rotate(-72.038)" fill="#024ef9"></rect> <rect id="Прямоугольник_170" data-name="Прямоугольник 170" width="18.869" height="1.503" transform="translate(215.465 489.569) rotate(-66.049)" fill="#024ef9"></rect> <rect id="Прямоугольник_171" data-name="Прямоугольник 171" width="18.87" height="1.502" transform="translate(376.443 128.006) rotate(-66.05)" fill="#024ef9"></rect> <path id="Контур_85" data-name="Контур 85" d="M66.587,171.284l-1.3-.751,9.435-16.34,1.3.751Z" transform="translate(130.872 309.11)" fill="#51fec0"></path> <path id="Контур_86" data-name="Контур 86" d="M132.447,57.21l-1.3-.751,9.438-16.339,1.3.751Z" transform="translate(262.902 80.428)" fill="#51fec0"></path> <rect id="Прямоугольник_172" data-name="Прямоугольник 172" width="18.867" height="1.5" transform="matrix(0.587, -0.81, 0.81, 0.587, 178.007, 467.763)" fill="#024ef9"></rect> <rect id="Прямоугольник_173" data-name="Прямоугольник 173" width="18.867" height="1.5" transform="translate(410.642 147.569) rotate(-54.049)" fill="#024ef9"></rect> <rect id="Прямоугольник_174" data-name="Прямоугольник 174" width="18.869" height="1.5" transform="matrix(0.669, -0.743, 0.743, 0.669, 161.187, 454.04)" fill="#024ef9"></rect> <rect id="Прямоугольник_175" data-name="Прямоугольник 175" width="18.869" height="1.5" transform="matrix(0.669, -0.743, 0.743, 0.669, 426.016, 159.918)" fill="#024ef9"></rect> <rect id="Прямоугольник_176" data-name="Прямоугольник 176" width="18.869" height="1.5" transform="matrix(0.743, -0.669, 0.669, 0.743, 145.895, 438.638)" fill="#024ef9"></rect> <rect id="Прямоугольник_177" data-name="Прямоугольник 177" width="18.871" height="1.5" transform="translate(440.017 173.811) rotate(-41.998)" fill="#024ef9"></rect> <rect id="Прямоугольник_178" data-name="Прямоугольник 178" width="18.871" height="1.501" transform="matrix(0.81, -0.587, 0.587, 0.81, 132.296, 421.719)" fill="#024ef9"></rect> <rect id="Прямоугольник_179" data-name="Прямоугольник 179" width="18.871" height="1.501" transform="translate(452.489 189.085) rotate(-35.953)" fill="#024ef9"></rect> <rect id="Прямоугольник_180" data-name="Прямоугольник 180" width="18.867" height="1.504" transform="translate(120.542 403.471) rotate(-29.944)" fill="#024ef9"></rect> <rect id="Прямоугольник_181" data-name="Прямоугольник 181" width="18.87" height="1.504" transform="translate(463.297 205.582) rotate(-29.944)" fill="#024ef9"></rect> <rect id="Прямоугольник_182" data-name="Прямоугольник 182" width="18.87" height="1.503" transform="matrix(0.914, -0.406, 0.406, 0.914, 110.76, 384.103)" fill="#024ef9"></rect> <rect id="Прямоугольник_183" data-name="Прямоугольник 183" width="18.87" height="1.503" transform="matrix(0.914, -0.406, 0.406, 0.914, 472.324, 223.123)" fill="#024ef9"></rect> <rect id="Прямоугольник_184" data-name="Прямоугольник 184" width="18.869" height="1.501" transform="translate(103.06 363.817) rotate(-17.964)" fill="#024ef9"></rect> <rect id="Прямоугольник_185" data-name="Прямоугольник 185" width="18.868" height="1.501" transform="translate(479.471 241.514) rotate(-17.964)" fill="#024ef9"></rect> <rect id="Прямоугольник_186" data-name="Прямоугольник 186" width="18.87" height="1.499" transform="matrix(0.978, -0.208, 0.208, 0.978, 97.521, 342.845)" fill="#024ef9"></rect> <rect id="Прямоугольник_187" data-name="Прямоугольник 187" width="18.87" height="1.499" transform="translate(484.653 260.56) rotate(-12.031)" fill="#024ef9"></rect> <path id="Контур_87" data-name="Контур 87" d="M31.511,109.777l-.159-1.5,18.764-1.974.159,1.5Z" transform="translate(62.85 213.113)" fill="#51fec0"></path> <path id="Контур_88" data-name="Контур 88" d="M162.51,96.009l-.159-1.5,18.767-1.974.159,1.5Z" transform="translate(325.463 185.511)" fill="#51fec0"></path> <rect id="Прямоугольник_188" data-name="Прямоугольник 188" width="18.869" height="1.502" transform="translate(93.148 299.718)" fill="#51fec0"></rect> <rect id="Прямоугольник_189" data-name="Прямоугольник 189" width="18.869" height="1.502" transform="translate(488.927 299.718)" fill="#51fec0"></rect> <path id="Контур_89" data-name="Контур 89" d="M50.116,96.009,31.352,94.035l.159-1.5,18.764,1.974Z" transform="translate(62.851 185.511)" fill="#51fec0"></path> <path id="Контур_90" data-name="Контур 90" d="M181.118,109.777,162.351,107.8l.159-1.5,18.767,1.974Z" transform="translate(325.463 213.113)" fill="#51fec0"></path> <rect id="Прямоугольник_190" data-name="Прямоугольник 190" width="1.499" height="18.87" transform="translate(97.52 258.098) rotate(-77.998)" fill="#024ef9"></rect> <rect id="Прямоугольник_191" data-name="Прямоугольник 191" width="1.499" height="18.87" transform="translate(484.652 340.383) rotate(-77.998)" fill="#024ef9"></rect> <rect id="Прямоугольник_192" data-name="Прямоугольник 192" width="1.501" height="18.869" transform="translate(103.061 237.117) rotate(-72.007)" fill="#024ef9"></rect> <rect id="Прямоугольник_193" data-name="Прямоугольник 193" width="1.501" height="18.869" transform="matrix(0.309, -0.951, 0.951, 0.309, 479.472, 359.421)" fill="#024ef9"></rect> <rect id="Прямоугольник_194" data-name="Прямоугольник 194" width="1.503" height="18.87" transform="translate(110.764 216.827) rotate(-65.994)" fill="#024ef9"></rect> <rect id="Прямоугольник_195" data-name="Прямоугольник 195" width="1.503" height="18.87" transform="translate(472.327 377.807) rotate(-65.994)" fill="#024ef9"></rect> <rect id="Прямоугольник_196" data-name="Прямоугольник 196" width="1.504" height="18.867" transform="matrix(0.5, -0.866, 0.866, 0.5, 120.547, 197.458)" fill="#024ef9"></rect> <rect id="Прямоугольник_197" data-name="Прямоугольник 197" width="1.504" height="18.87" transform="translate(463.303 395.348) rotate(-60.002)" fill="#024ef9"></rect> <rect id="Прямоугольник_198" data-name="Прямоугольник 198" width="1.501" height="18.871" transform="matrix(0.588, -0.809, 0.809, 0.588, 132.3, 179.214)" fill="#024ef9"></rect> <rect id="Прямоугольник_199" data-name="Прямоугольник 199" width="1.501" height="18.871" transform="translate(452.493 411.849) rotate(-54.004)" fill="#024ef9"></rect> <rect id="Прямоугольник_200" data-name="Прямоугольник 200" width="1.5" height="18.871" transform="matrix(0.669, -0.743, 0.743, 0.669, 145.895, 162.298)" fill="#024ef9"></rect> <rect id="Прямоугольник_201" data-name="Прямоугольник 201" width="1.5" height="18.869" transform="translate(440.018 427.128) rotate(-48.001)" fill="#024ef9"></rect> <rect id="Прямоугольник_202" data-name="Прямоугольник 202" width="1.5" height="18.869" transform="translate(161.186 146.899) rotate(-41.999)" fill="#024ef9"></rect> <rect id="Прямоугольник_203" data-name="Прямоугольник 203" width="1.5" height="18.869" transform="translate(426.016 441.021) rotate(-41.999)" fill="#024ef9"></rect> <rect id="Прямоугольник_204" data-name="Прямоугольник 204" width="1.5" height="18.867" transform="translate(178.001 133.181) rotate(-36.001)" fill="#024ef9"></rect> <rect id="Прямоугольник_205" data-name="Прямоугольник 205" width="1.5" height="18.867" transform="translate(410.636 453.375) rotate(-36.001)" fill="#024ef9"></rect> <path id="Контур_91" data-name="Контур 91" d="M74.718,57.21,65.283,40.871l1.3-.751,9.435,16.339Z" transform="translate(130.872 80.428)" fill="#51fec0"></path> <path id="Контур_92" data-name="Контур 92" d="M140.581,171.284l-9.438-16.34,1.3-.751,9.438,16.34Z" transform="translate(262.902 309.11)" fill="#51fec0"></path> <rect id="Прямоугольник_206" data-name="Прямоугольник 206" width="1.502" height="18.869" transform="translate(215.457 111.375) rotate(-23.998)" fill="#024ef9"></rect> <rect id="Прямоугольник_207" data-name="Прямоугольник 207" width="1.503" height="18.87" transform="translate(376.435 472.939) rotate(-24.006)" fill="#024ef9"></rect> <rect id="Прямоугольник_208" data-name="Прямоугольник 208" width="1.499" height="18.87" transform="matrix(0.951, -0.309, 0.309, 0.951, 235.69, 103.523)" fill="#024ef9"></rect> <rect id="Прямоугольник_209" data-name="Прямоугольник 209" width="1.499" height="18.87" transform="translate(357.994 479.931) rotate(-17.994)" fill="#024ef9"></rect> <rect id="Прямоугольник_210" data-name="Прямоугольник 210" width="1.5" height="18.872" transform="translate(256.631 97.829) rotate(-12.001)" fill="#024ef9"></rect> <rect id="Прямоугольник_211" data-name="Прямоугольник 211" width="1.5" height="18.869" transform="translate(338.92 484.962) rotate(-12.002)" fill="#024ef9"></rect> <path id="Контур_93" data-name="Контур 93" d="M94.51,50.277,92.539,31.51l1.5-.159,1.971,18.767Z" transform="translate(185.514 62.848)" fill="#51fec0"></path> <path id="Контур_94" data-name="Контур 94" d="M108.279,181.274l-1.971-18.764,1.5-.159,1.971,18.764Z" transform="translate(213.115 325.463)" fill="#51fec0"></path> <rect id="Прямоугольник_212" data-name="Прямоугольник 212" width="1.502" height="18.869" transform="translate(299.719 93.143)" fill="#51fec0"></rect> <rect id="Прямоугольник_213" data-name="Прямоугольник 213" width="1.502" height="18.866" transform="translate(299.719 488.927)" fill="#51fec0"></rect> <rect id="Прямоугольник_214" data-name="Прямоугольник 214" width="39.903" height="1.505" transform="translate(196.172 479.652) rotate(-60.057)" fill="#024ef9"></rect> <path id="Контур_95" data-name="Контур 95" d="M128.947,75.424l-1.3-.751L147.6,40.119l1.3.751Z" transform="translate(255.886 80.427)" fill="#51fec0"></path> <rect id="Прямоугольник_215" data-name="Прямоугольник 215" width="39.902" height="1.504" transform="translate(120.537 403.463) rotate(-29.944)" fill="#024ef9"></rect> <rect id="Прямоугольник_216" data-name="Прямоугольник 216" width="39.902" height="1.504" transform="translate(445.079 216.089) rotate(-29.944)" fill="#024ef9"></rect> <rect id="Прямоугольник_217" data-name="Прямоугольник 217" width="39.899" height="1.502" transform="translate(93.148 299.718)" fill="#51fec0"></rect> <rect id="Прямоугольник_218" data-name="Прямоугольник 218" width="39.902" height="1.502" transform="translate(467.894 299.718)" fill="#51fec0"></rect> <rect id="Прямоугольник_219" data-name="Прямоугольник 219" width="1.504" height="39.902" transform="matrix(0.5, -0.866, 0.866, 0.5, 120.546, 197.458)" fill="#024ef9"></rect> <rect id="Прямоугольник_220" data-name="Прямоугольник 220" width="1.504" height="39.902" transform="translate(445.088 384.832) rotate(-60)" fill="#024ef9"></rect> <path id="Контур_96" data-name="Контур 96" d="M85.234,75.424,65.283,40.87l1.3-.751L86.538,74.673Z" transform="translate(130.872 80.427)" fill="#51fec0"></path> <path id="Контур_97" data-name="Контур 97" d="M147.6,183.438l-19.954-34.557,1.3-.751L148.9,182.687Z" transform="translate(255.886 296.955)" fill="#51fec0"></path> <rect id="Прямоугольник_221" data-name="Прямоугольник 221" width="1.502" height="39.902" transform="translate(299.719 93.143)" fill="#51fec0"></rect> <rect id="Прямоугольник_222" data-name="Прямоугольник 222" width="1.502" height="39.899" transform="translate(299.719 467.894)" fill="#51fec0"></rect> </g> </svg> 