<?xml version="1.0" encoding="UTF-8"?> <svg xmlns="http://www.w3.org/2000/svg" xmlns:xlink="http://www.w3.org/1999/xlink" width="749.6" height="106.5" viewBox="0 0 749.6 106.5"> <defs> <linearGradient id="linear-gradient" x1="0.5" y1="0.877" x2="0.5" y2="0.189" gradientUnits="objectBoundingBox"> <stop offset="0" stop-color="#51fec0"></stop> <stop offset="0.507" stop-color="#29a5dd"></stop> <stop offset="1" stop-color="#024ef9"></stop> </linearGradient> <filter id="Контур_13266" x="0" y="0" width="749.6" height="106.5" filterUnits="userSpaceOnUse"> <feOffset dy="5"></feOffset> <feGaussianBlur stdDeviation="5" result="blur"></feGaussianBlur> <feFlood flood-opacity="0.149"></feFlood> <feComposite operator="in" in2="blur"></feComposite> <feComposite in="SourceGraphic"></feComposite> </filter> </defs> <g transform="matrix(1, 0, 0, 1, 0, 0)" filter="url(#Контур_13266)"> <path id="Контур_13266-2" data-name="Контур 13266" d="M178.022,75h25.6l15.4-56.1h-25.6Zm74.6-35.5h-1.9l-9.6,35.5h-26.6l16.5-60.4h26.6l-2.3,8.3h18.5a5.194,5.194,0,0,1,3.4,1.35,8.508,8.508,0,0,1,2.3,2.85v-.2l16.9,25,9.2-33.5,29.1-11.7-16,58.7v-.1a10.838,10.838,0,0,1-1.55,3.45,15.431,15.431,0,0,1-2.75,3.15,13.93,13.93,0,0,1-3.5,2.25,9.238,9.238,0,0,1-3.8.85h-23.6a6.617,6.617,0,0,1-3.05-.8,4.963,4.963,0,0,1-2.25-2.2l.2.2-23.7-32.5q-.1-.2-.8-.2Zm88.7,19.6h59.3q0-.1-.3-.3a.5.5,0,0,0-.5-.1,3.756,3.756,0,0,0,1-1.25,7.7,7.7,0,0,0,.5-1.55l.4-1.1h-64.3a8.786,8.786,0,0,1-2.2-2.65,6.047,6.047,0,0,1-.6-2.65,6.481,6.481,0,0,1,.1-1.5.823.823,0,0,1,.05-.25,1.108,1.108,0,0,0,.05-.35l5-18.6a10.056,10.056,0,0,1,1.65-3.35,19.979,19.979,0,0,1,2.85-3.2,18.02,18.02,0,0,1,3.3-2.4,6.6,6.6,0,0,1,3.2-.95h87.2l-15.4,16.2h-56.8a2.342,2.342,0,0,0-1.85,1.2,6.994,6.994,0,0,0-1.15,2.6h69l-7,25.2a13.232,13.232,0,0,1-1.75,3.7,22.162,22.162,0,0,1-2.85,3.5,16.15,16.15,0,0,1-3.45,2.65,7.357,7.357,0,0,1-3.65,1.05h-87Zm91.9,15.9h25.6l15.4-56.1h-25.6Zm113.2-29.1-2.6,9.5.2-.2q-.5.8-1.3,1.95t-1.3,1.15h-40.4a.619.619,0,0,1-.7-.7,2.939,2.939,0,0,1,.1-.7v-.3a.887.887,0,0,1,.1-.4v.2l4.8-17.8a4.976,4.976,0,0,1,.45-1.2,8.245,8.245,0,0,1,.9-1.4,7.326,7.326,0,0,1,1.1-1.15,1.691,1.691,0,0,1,1.05-.45h56.1l15.6-16h-88a6.071,6.071,0,0,0-3.1.95,14.378,14.378,0,0,0-3,2.4,20.763,20.763,0,0,0-2.5,3.15,11.853,11.853,0,0,0-1.5,3.1l-9.3,34.5a29.117,29.117,0,0,0-.6,4.3,9.391,9.391,0,0,0,1.8,5.8q1.8,2.4,6,2.4h58.2l-2.3,8.2h26.5l10.2-37.3Zm29.7,29.1,16.9-61.8h25.6l-2.7,9.9h58.2a7.373,7.373,0,0,1,3.05.65,8.98,8.98,0,0,1,4.35,4.1,5.913,5.913,0,0,1,.7,2.75v.3a3.909,3.909,0,0,1-.05.9l-.15.3L670.322,75h-25.6l9.2-33.7v-.6q0-.5-.65-.85a3.009,3.009,0,0,0-1.45-.35h-40.4l-.1.1-9.6,35.4Zm113.9,0a3.948,3.948,0,0,1-2.35-.75,8.661,8.661,0,0,1-3.1-4.1,9.517,9.517,0,0,1-.55-2.35,3.507,3.507,0,0,1-.1-1,3.884,3.884,0,0,1,.3-1.7l-.1.1,14.2-52h25.6l-2.8,10h46.4l-14.5,15.9h-36.1l-4.6,17.5v.3a6.5,6.5,0,0,0,.5,1.6,1.117,1.117,0,0,0,1.1.6h37.6a3.042,3.042,0,0,0,2.85-1.95,22.122,22.122,0,0,0,1.45-3.75q.1-.3.4-1.3l.6-1.6h25.6l-3.8,13.9v-.1a16.733,16.733,0,0,1-1.4,3.4,16.944,16.944,0,0,1-2.45,3.5,15.3,15.3,0,0,1-3.2,2.7,6.923,6.923,0,0,1-3.75,1.1Zm110.9-15.9h59.3q0-.1-.3-.3a.5.5,0,0,0-.5-.1,3.756,3.756,0,0,0,1-1.25,7.709,7.709,0,0,0,.5-1.55l.4-1.1h-64.3a8.787,8.787,0,0,1-2.2-2.65,6.048,6.048,0,0,1-.6-2.65,6.481,6.481,0,0,1,.1-1.5.823.823,0,0,1,.05-.25,1.106,1.106,0,0,0,.05-.35l5-18.6a10.056,10.056,0,0,1,1.65-3.35,19.978,19.978,0,0,1,2.85-3.2,18.017,18.017,0,0,1,3.3-2.4,6.6,6.6,0,0,1,3.2-.95h87.2l-15.4,16.2h-56.8a2.342,2.342,0,0,0-1.85,1.2,6.993,6.993,0,0,0-1.15,2.6h69l-7,25.2a13.234,13.234,0,0,1-1.75,3.7,22.162,22.162,0,0,1-2.85,3.5,16.149,16.149,0,0,1-3.45,2.65,7.357,7.357,0,0,1-3.65,1.05h-87Z" transform="translate(-163.02 3.3)" fill="url(#linear-gradient)"></path> </g> </svg> 