<?xml version="1.0" encoding="UTF-8"?> <svg xmlns="http://www.w3.org/2000/svg" width="20.166" height="20.69" viewBox="0 0 20.166 20.69"> <g id="Сгруппировать_377" data-name="Сгруппировать 377" transform="translate(1073.187 -788.596) rotate(180)"> <path id="Контур_13268" data-name="Контур 13268" d="M1058.254-799.167c.473-.577.94-1.071,1.318-1.625.687-1.007,1.357-2.03,1.966-3.085a13.086,13.086,0,0,0,.95-2.124,10.965,10.965,0,0,0,.348-1.629c.025-.128,0-.265.016-.4a1.239,1.239,0,0,1,1.547-1.241,2.588,2.588,0,0,1,2.252,2.35,7.327,7.327,0,0,1-.34,2.74c-.2.647-.36,1.305-.516,1.964a3.734,3.734,0,0,0-.055.634c1.374-.085,2.7-.2,4.037-.232a4.016,4.016,0,0,1,1.4.272,2.28,2.28,0,0,1,1.58,2.815,1.046,1.046,0,0,0,.087.643,2.537,2.537,0,0,1-.031,2.6,1.1,1.1,0,0,0-.106.681,2.89,2.89,0,0,1-.632,2.459,1.18,1.18,0,0,0-.266.651,2.471,2.471,0,0,1-1.485,2.389,7.089,7.089,0,0,1-2.555.679,53.777,53.777,0,0,1-8.915-.4.6.6,0,0,0-.338,0,4.735,4.735,0,0,1-2.332.261c-.479.022-.96.005-1.44,0a1.707,1.707,0,0,1-1.724-1.719q0-3.154.008-6.308c0-.363.024-.728.06-1.09a1.6,1.6,0,0,1,1.282-1.391A17.2,17.2,0,0,1,1058.254-799.167Zm.924,9.144a47.21,47.21,0,0,0,8.758.34,6.166,6.166,0,0,0,2.051-.639,1.258,1.258,0,0,0,.737-1.4,1.263,1.263,0,0,1,.476-1.254,1.555,1.555,0,0,0,.4-1.776,1.036,1.036,0,0,1,.175-1.132,1.383,1.383,0,0,0-.005-1.9.87.87,0,0,1-.115-1.033,1.214,1.214,0,0,0-.77-1.749,3.332,3.332,0,0,0-1.256-.231c-1.2.08-2.4.21-3.587.377-.868.122-1.37-.2-1.3-1.061a15.877,15.877,0,0,1,.447-2.57,8.069,8.069,0,0,0,.444-2.721,1.578,1.578,0,0,0-1.179-1.427c-.374-.114-.525-.018-.535.367a3.951,3.951,0,0,1-.086,1.326c-1,2.465-1.966,4.947-3.874,6.915a2.485,2.485,0,0,0-.745,1.458C1059.14-795.452,1059.178-792.771,1059.178-790.023Zm-3.242-2.056a.907.907,0,0,0-.925.887.981.981,0,0,0,.925.971.978.978,0,0,0,.948-.949A.884.884,0,0,0,1055.936-792.079Z"></path> </g> </svg> 