<?xml version="1.0" encoding="UTF-8"?> <svg xmlns="http://www.w3.org/2000/svg" width="926.713" height="473.475" viewBox="0 0 926.713 473.475"> <g id="Сгруппировать_230" data-name="Сгруппировать 230" transform="translate(-521.647 936.855)"> <path id="Контур_13183" data-name="Контур 13183" d="M1153.055-769.006c1.234,2.358,3.2,1.773,5.945.843,2.65-.9,5.782-.391,8.7-.465,1.115-.028,2.572.517,3.293,0,4.612-3.323,10.063-2.879,15.226-3.75,4.7-.792,9.364-1.74,14.064-2.507.836-.136,2.152-.009,2.541.518.424.573.164,1.785-.041,2.662-.465,1.99-1.3,3.914-1.571,5.921-.262,1.908,0,3.881,2.733,3.9.2,0,.5.083.569.22,2.563,5.127,8.393,3.145,12.182,5.6.607.393,1.386.542,1.947.981,3.638,2.845,7.514,4.876,12.954,3.426l3.678-8.244c3.4,1.705,7.024,3.827,11.43,5.024,7.1,1.931,14.269,1.041,21.358,1.953,8.28,1.066,9.249-.8,12.723-8.467a30.809,30.809,0,0,0,1.786-7.261c.492-2.744-.706-3.993-3.483-4.009-5.408-.031-10.818-.217-16.222-.094a11.823,11.823,0,0,1-9.67-4.913c-1.482-1.937-.827-5.536-1.037-8.4a17.447,17.447,0,0,1,.269-2.862c-4.035-1.16-7,5.6-10.869.883-2.145,3.211-1.99,3.664,2.122,7.829-1.108,1.659-2.163,3.239-3.219,4.818-1.467,1.132-2.9.77-4.122-1.165-2.029-3.224-4.45-6.206-6.4-9.474a10.572,10.572,0,0,1-.9-4.531c-.184-2.585-1.438-3.579-3.968-4.325-2.32-.684-4.255-2.695-6.339-4.148-2.471-1.723-4.858-3.577-7.41-5.168a18.877,18.877,0,0,0-3.952-1.4l-.753.64c.53,1.467.666,3.331,1.667,4.326a112.12,112.12,0,0,0,8.914,7.672c2.823,2.269,5.768,4.386,8.66,6.569l-.617,1.149-2.458-.625c-2.019,2.833-3.921,5.479-5.8,8.142-1.717,2.436-3.452,2.113-5.61-.224,4.426.416,6.221-2.427,8.079-5.235-3.907-4.494-7.748-8.645-13.521-10.332-1.165-.341-2.686-.927-3.175-1.857-1.894-3.6-4.665-5.6-8.963-5.7a2.2,2.2,0,0,0-.338.815c-.381,4.508-.523,4.621-4.959,3.706-4.581-.946-5.555-.653-8.014,3.143a13.8,13.8,0,0,1-5.448,4.763c-1.88,1.014-3.961,3.727-3.958,5.684,0,3.159-1.526,4.522-3.648,5.877-2.362,1.507-4.725,3.036-7.216,4.305a5.34,5.34,0,0,1-3.247.189c-2.612-.538-5.15-1.442-7.767-1.941-4.435-.847-6.241-3.7-5.382-8.273a41.5,41.5,0,0,0,.71-8.3c-.094-5.48,2.638-8.188,7.925-7.33a11.78,11.78,0,0,1,4.725,1.471c3.043,2.1,5.892,1.387,8.712-.1a3.856,3.856,0,0,0,1.671-2.4c.771-3.827-.214-7.05-3.647-9.325-1.266-.839-2.378-1.909-4.309-3.484l8.747-.588-6-3.388-.008-.927c1.171-.254,2.332-.572,3.515-.747,1.618-.239,3.25-.4,4.88-.54a11.669,11.669,0,0,0,8.841-5.111c.814-1.108,2.787-1.312,4.118-2.115.9-.542,2.27-1.408,2.271-2.129,0-2.663,1.656-3.488,3.69-3.744a10.026,10.026,0,0,0,7.285-4.169,8.525,8.525,0,0,1,2.039-1.41c.965,3.056,3,2.7,5.119,1.639a7.4,7.4,0,0,1,8.853,1.016c.816.671,3.043.529,4.058-.122a10.5,10.5,0,0,1,7.7-1.7c4.454.706,7-1.542,7.2-6.169.03-.689.176-1.375.314-2.4,1.113.287,1.993.479,2.852.741,2.815.86,4.214-.252,3.872-3.176a24.935,24.935,0,0,0-.656-2.731c-.185-.785-.346-1.576-.656-3.006,1.351.637,2.212,1.055,3.081,1.452,2.16.988,6.061,0,7.291-1.967a2.124,2.124,0,0,0,.126-1.924,4.073,4.073,0,0,0-2.477-1.554,34.111,34.111,0,0,0-7.41.837c-2.431.592-3.64-.554-4.943-2.236-1.253-1.617-.636-2.812.346-4.168a37.915,37.915,0,0,0,3.049-4.718,2.929,2.929,0,0,0,.041-2.509,2.628,2.628,0,0,0-2.321-.941c-3.637,1.754-7.516,3.3-10.615,5.781-2.534,2.031-1.791,9.4.575,12.174-3.063,3.724-4.077,8.94-9.014,11.459-3.841,1.96-7.139.674-8.127-3.521a6.09,6.09,0,0,0-2.549-3.134c-1.976-1.327-4.257-2.19-6.292-3.442-4.132-2.542-4.253-2.572-7.224,1.6a17.42,17.42,0,0,1,.3-11.3c2.085-.309,4.006-.519,5.894-.895a3.442,3.442,0,0,0,3.048-3.372,5.936,5.936,0,0,1,2.179-3.556q11.923-9.089,24.07-17.88a7.351,7.351,0,0,1,3.83-1.082c10.377-.442,20.534,1.393,30.64,3.369a66.209,66.209,0,0,1,10.273,3.443c1.5.56,3.916.541,3.326,3.183a3.693,3.693,0,0,1-5.656,2.512c-3.739-2.6-6.895-.766-10.271.227l-.986,1.111a34.058,34.058,0,0,1,3.244,1.837,59.869,59.869,0,0,1,5.189,4.018c3.323,2.964,3.664,3.24,6.867.225a44.566,44.566,0,0,1,20.3-11.09c.778-.191,1.432-.852,2.2-1.114,1.527-.517,3.5-1.728,4.574-1.2,3.4,1.688,6.819.585,10.2.78a4.6,4.6,0,0,0,2.432-.974c1.215-.791,2.284-1.807,3.492-2.611,2.041-1.357,3.613-1.276,5.734.589a17.606,17.606,0,0,0,14.746,4.234c1.768-.279,3.368-1.625,5.383-2.656a17.353,17.353,0,0,1-8.288-9.908c-.7-1.976.14-3.062,2.56-2.892,7.907.557,11.768,4.73,11.508,12.7-.131,4,.995,5.291,4.138,4.756,3.736-.637,4.114-1.574,2.412-5.016-1.593-3.223-2.967-6.554-4.437-9.837l.85-.434c1.557,2.6,3.029,5.247,4.7,7.764.923,1.388,1.895,3.487,4.107,2.12,1.9-1.173,2.969-2.954,1.631-5.305a9.339,9.339,0,0,1-.471-1.158c-2.3-5.749-2.278-5.842,3.623-6.739,4.8-.73,9.622-1.384,14.438-2.043,3.948-.541,7.463-1.937,10.1-5.05a4.112,4.112,0,0,1,4.645-1.574c1.532.385,3.281-.095,4.933-.178,3.746-.19,7.494-.482,11.241-.5,1.188-.006,2.354.912,3.576,1.08a20.827,20.827,0,0,0,5.521.241c3.4-.454,6.616-.34,9.727,1.595l-5.889,6.814.459,1.241c1.987,0,3.991.161,5.959-.033,4.674-.461,9.032-.478,13.7,1.4,3.462,1.394,8.146,1.246,11.843.209,5.231-1.467,10.271-1.207,15.447-.812a2.991,2.991,0,0,1,1.455.495c5.343,3.837,11.574,3.642,17.7,3.964a12.354,12.354,0,0,1,4.01.418c6.5,2.732,11.734-.018,14.516-6.15,7.213,2.579,13.87,6.7,22.088,6.024a128.154,128.154,0,0,1,16.879.1c2.051.1,4.05,1.19,6.081,1.8a12.984,12.984,0,0,0,3.56.942,96.427,96.427,0,0,1,31.052,4.561c1.1-5.3,4.668-4.533,8.445-3.82,7.063,1.333,14.427,1.658,21.18,3.878a51.258,51.258,0,0,0,17.9,2.575c5.843-.159,10.817,2.5,14.819,8.041-2.853-.546-5.291-.922-7.683-1.492-3.337-.8-6.609-1.9-9.975-2.518-1.023-.187-2.3.746-3.395,1.294-1.4.7-2.724,1.528-4.521,2.549l14.479,8.085c-1.537.515-2.571,1.212-3.523,1.113a6.422,6.422,0,0,0-6.167,2.775c-1.716,2.176-3.678,4.16-5.533,6.228l-.865-.6c.175-1.8.35-3.6.575-5.921-3.517,1.839-6.588,3.126-9.253,4.993-1.085.761-1.717,2.763-1.782,4.234-.085,1.923,1.775,1.962,3.294,2.514,1.825.663,4.038,1.892,4.805,3.49,1.533,3.192,2.741,6.556,1.576,10.5-.88,2.981-.482,6.34-.7,10.354-2.118-1.8-3.889-3.133-5.452-4.677-2.664-2.633-6.447-4.5-6.469-9.075,0-.36-.849-.82-1.381-1.058-4.974-2.212-7.1-5.867-6.363-11.122.1-.705.21-1.689.682-2.018,3.727-2.589,2.588-5.827,1.4-9.116a14.063,14.063,0,0,1-.361-1.4c-2.436-1.133-4.324-.878-5.966,1.32-1.282,1.717-3,1.5-4.733.423-1.1-.682-3.132-1.875-3.384-1.6a25.217,25.217,0,0,0-3.462,5.266c-.352.666-.017,1.659-.193,2.459-.731,3.327-1.963,3.845-5.132,2.778a35.3,35.3,0,0,0-6.109-1.165c-2.06-.3-4.271-.106-6.185-.782-5.328-1.884-9.409-1.25-13.765,3.056-3.3,3.259-4.583,6.453-4.466,10.64.132,4.779,2.5,6.577,7.351,6.306a55.661,55.661,0,0,1,11.169.262c1.762.26,3.511,1.856,4.88,3.231a52.623,52.623,0,0,1,5.723,6.9,7.894,7.894,0,0,1,1.311,4.105c.1,3.562-.069,7.136-.257,10.7a8.174,8.174,0,0,1-.863,2.891c-1.047,2.253-2.2,4.456-3.558,7.177-1.614,0-3.685-.1-5.741.026-2.365.141-4.262.677-3.855,3.916.148,1.189-.775,2.715-1.6,3.784-2.686,3.471-2.45,6.174,1.118,8.691,2.724,1.922,5.561,3.684,8.3,5.591,2.238,1.56,2.916,3.437.889,5.725-1.232,1.391-2.189,3.133-3.65,4.192-2.939,2.132-6.468.4-6.311-3.2.165-3.787-.956-6.088-4.777-7.172-2.123-.6-3.455-2.107-3.738-4.753-.4-3.7-3.251-4.619-6.07-2.359-.868.7-1.847,1.252-3.244,2.186-.927-2.671-1.591-5.019-2.6-7.207-.28-.606-1.917-1.267-2.369-.989a17.149,17.149,0,0,0-4.21,3.553,70.914,70.914,0,0,0-4.874,6.879,14.619,14.619,0,0,0-1.126,3.013,12.308,12.308,0,0,0,3.152.962c4.085.113,8.174.046,12.613.046a27.985,27.985,0,0,1-2.536,4.346c-1.356,1.661-2,3.19-.52,4.979,3.106,3.765,6.464,7.34,9.355,11.26,3.182,4.316,5.334,9.189,3.76,14.7a34.171,34.171,0,0,1-3.622,7.9,14.122,14.122,0,0,1-10.452,7.2c-4.849.68-7.567,3.847-9.675,7.875-1.4,2.675-2.916,5.291-4.437,7.9a4.047,4.047,0,0,1-2.279,1.812c0-2.445.048-4.892-.012-7.335a7.209,7.209,0,0,0-6.75-6.537c-2.276.026-8.6,9.383-7.5,11.3a8.151,8.151,0,0,0,2.666,2.562c6.455,4.179,9.336,11.1,12.972,17.329.831,1.425-.032,4.732-1.252,6.275a80.53,80.53,0,0,1-9.6,9.732c-1.619,1.452-4.41.1-6.272-2.333-2.11-2.759-4.417-5.365-6.613-8.06a31.148,31.148,0,0,1-2.913-3.84c-1.044-1.795-2.469-1.6-3.067-.191a26.275,26.275,0,0,0-1.846,7.371,80.95,80.95,0,0,0-.07,8.6l-1.294.259a19.208,19.208,0,0,1-1.665-4.236,22.77,22.77,0,0,1-.182-6.844c.84-5.068-1.234-9.416-2.941-13.859-.875-2.279-2.514-2.519-4.38-.916-.619.532-1.212,1.093-2.592,2.342-.55-2.133-1.244-3.671-1.28-5.224a5.2,5.2,0,0,0-3.04-5.148,11.929,11.929,0,0,1-5.258-5.849c-2.467-7.368-8.2-9.431-14.881-10.292a4.177,4.177,0,0,0-2.782,1.177c-2.651,2.336-5.083,4.923-7.766,7.219-2.5,2.139-5.193,4.052-7.842,6.01-.572.422-1.373.525-1.976.917-3.225,2.1-7.417,13.589-6.818,17.449a69.762,69.762,0,0,1,.67,10.857c-.006,2.448-6.4,7.492-8.533,6.594-1.364-.574-2.525-2.36-3.139-3.863-3.717-9.1-7.18-18.3-10.887-27.4a15.785,15.785,0,0,1-1.183-8.117c.3-2.75-.83-5.659-1.453-9.188-1.557,1.069-2.449,1.668-3.326,2.288-2.773,1.958-4.809,1.494-7.042-1.04a96.91,96.91,0,0,0-7.046-6.875c-1.92-1.777-3.693-4.045-5.988-5a35.289,35.289,0,0,0-9.883-2.1c-3.612-.374-7.286-.106-10.925-.294a14.773,14.773,0,0,1-11.466-5.727c-1.034-1.287-4-1.215-6.121-1.407a28.078,28.078,0,0,1-20.593-12.06c-1.584,2.219-1.125,4.419-.383,6.512,1.525,4.3,3.224,8.543,4.823,12.818,1.465,3.916,6.083,5.837,10.021,4.7,3.181-.916,5.7-2.292,7.286-5.259.686-1.284,1.586-2.454,2.118-3.264,2.668,4.165,4.626,7.589,6.976,10.719,1,1.334,2.753,2.177,4.286,3.021,1.984,1.093,2.709,2.507,1.01,4.19-5.965,5.909-9.739,13.841-17.032,18.492-2,1.276-4.2,2.242-6.32,3.323-4.532,2.311-8.98,4.817-13.644,6.822a20.529,20.529,0,0,1-8.585,2.031c-4.782-.208-5.847-4.631-6.179-8.18-.59-6.305-4.3-10.88-7.833-15.326A79.184,79.184,0,0,1,1292-728.266a73.754,73.754,0,0,0-4.939-8.246c-.936-1.487-1.951-2.932-3.027-4.322-1.455-1.879-2.72-3.892-5.858-2.921-1.007.312-2.511-.981-4.11-1.681.312.832.554,1.623.9,2.368q6.714,14.586,13.448,29.162a49.038,49.038,0,0,0,9.384,14.159c5.068,5.173,9.574,10.746,10.853,18.191.375,2.179,1.353,2.718,3.659,2.487,5.263-.527,10.591-.394,15.861-.872,2.71-.245,5.354-1.223,8.489-1.981-1.57,6.078-1.952,12.115-6.245,16.942-2.127,2.391-3.5,5.435-5.539,7.923-2.818,3.445-5.934,6.646-8.931,9.944-.629.693-1.365,1.3-1.935,2.034-4.973,6.424-9.873,12.905-14.894,19.29-2.77,3.522-3.041,7.036-1.683,11.357,2.333,7.421,4.342,15.045,4.1,22.915-.143,4.71-2.216,8.419-6.5,11.321a48.025,48.025,0,0,0-10.329,10.188c-2.06,2.615-3.646,5.817-1.4,9.674.976,1.677.361,4.279.477,6.618-4.137,2.385-7.767,5.388-9.367,10.348-1.886,5.847-6.594,9.558-10.784,13.634-2.614,2.543-5.014,5.382-7.93,7.516a25.945,25.945,0,0,1-7.96,3.645c-2.981.875-6.164,1.051-9.242,1.621a7.977,7.977,0,0,0-2.269.963c-2.512,1.373-5,.85-6.223-1.783a25.306,25.306,0,0,1-2.172-7.09c-.575-4.187-2-8.114-5-10.841-3.9-3.549-4.75-8.206-4.869-12.637-.254-9.492-4.048-17.607-8.727-25.325-3.2-5.27-2.011-9.795.225-14.645,1.383-3,3.106-5.924,3.916-9.077.51-1.988-.446-4.33-.632-6.523-.2-2.422-.087-4.887-.478-7.273a22.168,22.168,0,0,0-1.795-4.877c-.772-1.815-2.015-3.512-2.4-5.394-.936-4.555-3.671-7.874-6.8-10.978-3.644-3.612-3.786-4.155-1.669-8.923,2.163-4.871,1.42-10.893-2.353-14.123-1.5-1.282-4-1.391-6.042-2.036-1.18-.372-2.994-.393-3.436-1.18-3.672-6.557-9.6-6.019-15.516-5.008-3.667.627-7.178,2.12-10.823,2.942a53.557,53.557,0,0,1-6.628.61,5.234,5.234,0,0,0-1.77.43c-7.928,3.882-13.369,2.954-20.084-2.756-4.477-3.807-7.591-8.425-10.473-13.448-1.693-2.951-4.4-5.393-6.933-7.762-1.317-1.232-2.408-2.061-1.83-4.115a4.763,4.763,0,0,0-.382-3.337c-1.523-2.633-.68-4.829.447-7.319,2.08-4.6,3.129-9.337,1.552-14.484-.976-3.186-.239-6.269,1-9.61,3.892-10.522,11.086-18.182,19.6-24.926,1.553-1.23,2.025-2.613,2.264-4.7a13.1,13.1,0,0,1,3.339-7.258C1144.958-762.922,1149.05-765.751,1153.055-769.006Z" transform="translate(-220.868 -11.771)" fill="#51fec0"></path> <path id="Контур_13184" data-name="Контур 13184" d="M686.591-724.191c-2.74-2.653-3.269-5.922-3.568-9.238-.492-5.47-3.382-8.415-8.787-9.844-4.475-1.182-7.732-.636-10.037,3.8-1.118,2.152-6.018,1.77-7.05-.5-.909-2-1.894-1.643-3.662-1.346-5.713.961-10.555,3.68-15.155,6.908a8.857,8.857,0,0,0-3.229,3.841c-1.855,5.154-3.406,10.419-4.97,15.673-1.225,4.113-1.157,8.4,2.085,11.359,3.929,3.594,8.578,5.576,14.325,3.572,3.827-1.333,5.124-4.246,6.467-7.437a5.591,5.591,0,0,1,8.661-2.249c.7.6.92,2.461.567,3.465-1.789,5.1-3.839,10.1-5.747,15.005,2.948,0,5.789-.131,8.612.028,5.434.3,6.068,1.168,5.655,6.593-.3,3.914-.487,7.836-.684,11.756-.189,3.775,2.535,5.7,5.02,7.77,1.458,1.217,2.877,2.481,4.521,3.9-.766.344-.989.536-1.107.485-3.392-1.453-6.96-2.619-10.1-4.5-2.69-1.613-5.112-3.719-5.31-7.521-.214-4.1-4.336-5.849-6.253-8.978a1.421,1.421,0,0,0-1.139-.358c-6.991.689-12.04-3.282-16.91-7.321a5.326,5.326,0,0,0-5.448-1.065c-5.286,1.953-9.888-.07-14.242-2.321a103.073,103.073,0,0,1-13.867-8.824c-1.09-.807-1.573-3.45-1.21-4.983.682-2.875-.172-4.941-1.659-7.241-1.8-2.785-3.105-5.889-4.753-8.781-2.092-3.673-4.435-7.207-6.426-10.931-.959-1.794-1.264-3.925-2.038-5.833-1.1-2.717-2.365-5.369-3.595-8.129-3.042,1.379-3.975,3.006-2.916,5.509a62.383,62.383,0,0,1,3,7.161c1.286,4.566,2.224,9.229,3.093,13.915-3.179-4.622-6.018-9.237-7.382-14.855a71.131,71.131,0,0,1-1.91-13.488,5.578,5.578,0,0,0-2.741-3.751c-6.232-3.323-7.489-9.036-7.894-15.263-.068-1.039.01-2.091-.1-3.125-.456-4.351-.424-8.036,3.478-11.613,4.122-3.78,6.92-9.025,10.173-13.714a27.592,27.592,0,0,0,3.115-5.727c.745-1.934.892-4.038,3.634-4.381.443-.056,1.189-1.818.957-2.509-2.875-8.538-1.637-17.2-1.136-25.871.255-4.422-.706-5.344-4.986-6.933-.276-.1-.725-.208-.77-.393-.906-3.649-4.031-2.932-6.566-3.378-5.311-.936-10.607-1.966-15.94-2.748a7.8,7.8,0,0,0-3.833.809c-2.282.95-4.469,2.128-6.929,3.324l-.729-3.671c-6.124,6.407-14.342,6.946-22.074,9.424l1.611-3.045a30.054,30.054,0,0,0-3.995-2.016c-1.691-.573-3.285-1.065-3.055-3.28.219-2.108.458-3.909,2.375-5.678,3.731-3.444,8.156-3.2,12.492-3.443,4.2-.233,6.458-2.755,8.615-5.655l-.309-.9a21.615,21.615,0,0,0-4.626,1.368c-1.918,1.057-4.7.848-5.293-1.182-.259-.886,1-2.728,2.048-3.39,3.273-2.073,6.417-.042,9.561.844,2.509.708,4.465-.743,3.776-2.994a17.581,17.581,0,0,0-2.112-3.479,23.426,23.426,0,0,1,11.942-3.988,19.56,19.56,0,0,0,3.1-.242,201,201,0,0,1,44.4-5c1.8-.019,2.7.351,3.582,2.382,2.519,5.82,7.5,7.74,14.059,5.524a80.923,80.923,0,0,1,22.635-4.327,6.966,6.966,0,0,1,2.476.013c7.252,2.56,14.835,1.82,22.289,2.338.517.036,1.03.134,1.728.227.119,3.425,2.9,3.169,5.2,3.764,2.8.726,5.548,1.647,8.854,2.646,1.914-4.178,6.33-4.259,11.087-4.3,6.321-.06,12.429.216,18.124,3.4a3.328,3.328,0,0,0,3.052-.567c2.2-2.168,4.856-4.3,6.01-7.016,1.784-4.2,4.185-6.527,9.164-6.121.958,2.4-2.067,7.117,3.481,7.246v4.971c4.47-1.931,8.507-3.738,12.6-5.4a11.068,11.068,0,0,1,3.087-.316c-.1,1.075.215,2.69-.365,3.129-2.027,1.537-4.224,3.308-6.608,3.818-4.818,1.032-9.137,2.718-12.555,6.109l-4.049-3.42c-.546.415-.828.519-.844.656-.767,6.378-.909,5.93-7.02,7.893-7.9,2.538-15.847,5.26-21.9,11.517-3.473,3.591-2.768,8.012,1.016,11.064,4.986,4.021,10.941,4.118,16.646,5.4.771.174,1.55.314,2.145.434a32.387,32.387,0,0,0-2.077,5.172c-.947,4.431.424,6.311,4.975,6.538,1.2.06,2.494-1.2,3.685-1.956a1.534,1.534,0,0,0,.468-1.126c.162-7.366,6.018-8.331,11.224-9.594,2.858-.693,3.537-1.777,2.939-4.486a20.491,20.491,0,0,1,.552-11.576l.661.731c1.372-.581,2.75-1.147,4.11-1.753a1.66,1.66,0,0,0,.706-.607c3.49-5.745,8.521-5.22,13.961-3.6,3.484,1.037,4.956,3.155,4.875,6.782a6.5,6.5,0,0,0,1.676,4.078c.4.451,2.268-.106,3.3-.576,2.651-1.21,5.168-2.716,7.826-3.911a3.648,3.648,0,0,1,2.837-.039c.478.255.554,1.621.492,2.465-.167,2.279-.689,4.546-.694,6.818a7.406,7.406,0,0,0,1.289,3.407c1.194,2.049,2.554,4,4.02,6.263,1.758-2.967,2.834-.931,4.2.3,1.688,1.521,1.31,2.865-.041,4.251-1.378,1.413-2.706,2.894-4.212,4.159a16.544,16.544,0,0,1-12,4.175c-8.228-.371-16.52-.1-24.2,3.585a18.492,18.492,0,0,0-3.041,2.318l.482,1.069,14.794-.8.238,1.056-6.67,5.313c4.223,1.572,7.565,2.8,11.342.851.9-.465,2.286,0,3.448.043-.758,1.049-1.323,2.378-2.326,3.073a6.838,6.838,0,0,1-4.063,1.425c-3.867-.368-6.075,2.106-8.6,4.23-1.379,1.158-2.959,2.076-5.081,3.537.1-4.544.471-7.905,4.651-9.514-6.988,2.314-14.092,4.139-19.25,9.7a7.183,7.183,0,0,0-1.979,3.664c-.24,2.066-1.309,2.438-2.946,2.237-3.685-.453-6.458.69-8.121,4.194a5.806,5.806,0,0,1-1.758,1.727c-4.577,3.637-8.766,7.574-11.27,13.033a6.793,6.793,0,0,1-2.493,2.281c-4.919,3.329-9.665,7-14.881,9.784-5.743,3.068-6.212,7.671-5.309,13.108a27.354,27.354,0,0,0,.637,2.739C691.451-729.541,691.237-728.775,686.591-724.191Z" transform="translate(0 -20.179)" fill="#51fec0"></path> <path id="Контур_13185" data-name="Контур 13185" d="M798.327-554.775c2.936,3.763,5.256,7.117,4.33,11.915,3.9-2.366,3.657-6.737,5.7-10.144,7.01,5.494,15.218,5.811,23.469,4.792.78,4.846,4.345,6.855,7.756,7.653,5.447,1.276,8.627,5.008,12.375,8.459,2.445,2.251,5.11,4.917,9.219,4,1.932-.431,7,3.443,8.161,5.942.35.754.554,1.574.886,2.336,2.9,6.655,2.881,6.765-2.507,12.189a3.839,3.839,0,0,0-.4.787,52.819,52.819,0,0,1,7.226-1.441c1.222-.082,2.514.879,3.774,1.369.255.1.54.332.758.281,4.182-.987,6.715,1.77,9.513,4.054,1.631,1.333,3.044,2.334,5.784,2.049,5.753-.6,11.421,1.28,16.594,3.775a69.119,69.119,0,0,1,11.5,7.4c.885.671,1.135,2.991.78,4.313-.689,2.564-1.413,5.565-3.182,7.311-6.691,6.6-8.167,15.01-9.289,23.667-.946,7.292-1.628,14.541-4.737,21.486a11.277,11.277,0,0,1-7.42,6.618c-3.554,1.177-7.218,2.025-10.831,3.025-4.585,1.27-5.14,2.334-3.8,6.72,1.07,3.491-.721,6.4-2.546,8.988-2.063,2.927-2.606,6.144-3.334,9.471-.361,1.649-1.919,3.052-2.991,4.526-.848,1.167-2.048,2.148-2.634,3.423-2.969,6.452-7.28,6.206-12.485,3.907a19.718,19.718,0,0,1-2.312-1.413l-.873.46c.551,1.217.832,2.707,1.718,3.586a13.9,13.9,0,0,0,4.413,2.86c2.475,1.023,2.6,2.412,1.137,4.289a48.752,48.752,0,0,1-5.137,6.154c-.778.715-2.535.457-3.849.473-1.254.016-2.74-.628-3.686-.138-.619.321-.517,2.14-.624,3.3a12.637,12.637,0,0,0,.2,1.859c.2,3.322-1.9,4.7-5.028,3.371a13.136,13.136,0,0,0-2.571-.533,14.1,14.1,0,0,0,.713,3.592c.616,1.275,2.293,2.272,2.413,3.5a12.809,12.809,0,0,1-1.065,5.52c-.686,1.809-2.02,3.366-2.76,5.162-.612,1.488.008,2.544,1.835,2.044,2.768-.758,3.277.554,3.588,3.031.428,3.406-.627,6.133-1.951,9.176-1.071,2.46-.537,5.618-.745,8.936-4.813.711-9.452-1.8-12.789-5.839-3.547-4.292-6.216-9.338-8.993-14.211a4.471,4.471,0,0,1,.4-3.891c1.713-2.492,2.733-4.371.37-7.358-1.971-2.49-2.051-6.618-4.209-8.786-4.563-4.584-3.984-10.155-4.381-15.588-.711-9.753-1.2-19.522-1.78-29.285-.5-8.377-1.085-16.752-1.437-25.136a28.738,28.738,0,0,1,.939-6.134c.344-1.9-.378-3.236-1.265-5.006-1.937-3.863-6.01-3.452-8.641-5.637-5.372-4.461-11.064-8.582-16.076-13.411-2.35-2.264-3.86-5.692-5-8.863a59.051,59.051,0,0,0-11.188-18.614c-2.633-3.064-2.509-5.383.614-7.826,1.919-1.5,1.713-3.1.356-4.5-2.547-2.629-1.683-4.566.17-7.318,3.921-5.822,7.228-12.057,10.8-18.117a7.486,7.486,0,0,1,1.062-1.534c1.422-1.421,1.736-2.745.026-4.217a3.781,3.781,0,0,1-1.078-1.852c-.811-3.186-1.37-6.183,2.388-8.27,1.641-.91,2.609-2.956,4.092-4.246,1.332-1.158,2.977-1.949,4.432-2.975a9.143,9.143,0,0,0,2.149-1.923A31.1,31.1,0,0,0,798.327-554.775Z" transform="translate(-92.657 -142.824)" fill="#51fec0"></path> <path id="Контур_13186" data-name="Контур 13186" d="M1786.871-334.258c.563-1.609,1.6-3.216,1.607-4.83.037-5.591-.671-11.206-.355-16.769.34-6.006,1.48-11.968,2.356-17.937.125-.856.515-2.078,1.147-2.389,4.6-2.266,8.606-5.573,13.853-6.8,4.274-1,8.34-3.117,12.29-5.145,1.38-.708,2.261-2.554,3.141-4.018a51.543,51.543,0,0,0,2.292-4.837l2.6,2.093c2.2-3.086,4.284-6.065,6.426-9,2.961-4.061,5.763-3.653,8.408.586.889,1.423,3.335,1.875,5.645,3.069,0-1.85-.292-2.981.074-3.829a9.934,9.934,0,0,1,2.224-2.754c1.068-1.081,2.355-1.96,3.338-3.106,2.591-3.019,5.619-4.453,9.682-3.521a32.734,32.734,0,0,0,5.6.472c2.02.1,2.737.87,1.562,2.752-.165.265-.332.531-.472.81-2.167,4.313-1.832,6.8,1.6,10.025a46.009,46.009,0,0,0,5.542,4.494c2.355,1.607,7.176-.095,8.453-2.813a79.385,79.385,0,0,0,3.9-8.5c.941-2.837,1.24-5.886,2.119-8.9,3.846,8.134,10.219,15.449,7.679,25.845,4.444,1.091,5.686,4.566,6.84,8.6.866,3.028,2.665,6.087,6.474,6.864a2.646,2.646,0,0,1,1.81,1.436,38.4,38.4,0,0,1-.321,18.592c-1.8,7.018-6.562,11.656-10.38,17.063-1.79,2.534-5.32,3.812-7.224,6.3-5.755,7.516-13.944,10.942-22.271,14.294-.726-1.644-4.519-3.092-6.437-2.49-4.808,1.51-8.571-1.943-7.784-7.055.159-1.033.314-2.617-.257-3.117-2.373-2.075-1.849-4.117-.577-6.417a22.509,22.509,0,0,0,1.152-3.225l-11.083,5.231-.862-.488c2.274-5.877-3.811-6.489-5.562-9.839-.144-.275-.96-.319-1.446-.277a113.617,113.617,0,0,0-12.3,1.271c-2.643.529-5.005,2.331-7.625,3.135-4.921,1.511-9.934,2.721-14.913,4.039-3.907,1.034-7.792,2.177-11.743,3.009-2.575.543-5.589,1.892-7.194-1.695Z" transform="translate(-472.581 -195.029)" fill="#51fec0"></path> <path id="Контур_13187" data-name="Контур 13187" d="M950.761-923.338c2.524-.108,5.048-.266,7.573-.3,1.35-.02,2.751.428,4.044.195,1.782-.321,3.8-.7,5.115-1.79.994-.822,1.04-2.788,1.67-4.751-2.323.452-4.135.772-5.933,1.16-8.548,1.844-17.09,3.715-25.639,5.557-3.091.666-5.842,1.736-6.438,4.388-2.317.557-4.366.554-5.793,1.495-3.111,2.051-5.868,1.2-8.817-.092a18.783,18.783,0,0,0-5.318-1.8,7.027,7.027,0,0,1-6.315-4.539c2.082-2.23,4.075-4.237,7.632-4.36a89.731,89.731,0,0,0,13.953-1.621c2.639-.513,5.092-2,7.616-3.073a23.768,23.768,0,0,1,3.058-1.42c3.622-.956,7.245-2.24,10.934-2.515,3.353-.249,6.795.625,10.191,1.055,11.771,1.491,23.56,2.7,35.449,2.141a30.17,30.17,0,0,0,5.534-.875,13.931,13.931,0,0,1,8.622.487c4.057,1.473,8.806,1.258,13.266,1.351,7.275.152,14.563.131,21.833-.142,4.114-.154,8.2-1.009,12.308-1.431a9.761,9.761,0,0,1,3.247.388c.68.168,1.31,1.013,1.908.958,3.284-.3,5.619.949,6.85,3.889a95.325,95.325,0,0,0-8.423,5.71,6.245,6.245,0,0,0-1.8,4.256c-.053,2.2-.731,3.73-2.742,4.369a27.045,27.045,0,0,1-6.93,1.586c-4.334.173-6.066,1.658-6.112,6.048-.093,8.97-.486,9.073-9.242,10.388-6.969,1.047-13.834,2.829-20.7,4.487-1.033.249-1.766,1.639-2.7,2.43a9.118,9.118,0,0,1-2.676,1.936,94.039,94.039,0,0,1-9.31,2.629c-3.793.834-6.035,3.172-7.906,6.449a87.15,87.15,0,0,1-6.667,9.364c-1.244,1.632-2.564,1.6-4.558.539-6.591-3.513-9.719-9.038-10.717-16.181a43.088,43.088,0,0,0-1.708-5.663c-.587-2.046.011-2.958,2.322-2.534a15.589,15.589,0,0,0,4.645.223,4.994,4.994,0,0,0,4.384-5.5c-.826-8.459-4.772-15.295-11.9-19.726-2.723-1.693-6.6-1.5-9.927-2.265-1.4-.32-2.732-.892-4.1-1.349Q950.653-922.563,950.761-923.338Z" transform="translate(-143.266)" fill="#51fec0"></path> <path id="Контур_13188" data-name="Контур 13188" d="M1950.351-456.319c-.262.53-.787,1.588-1.351,2.728l13.619,11.181a12.666,12.666,0,0,1-12.345-2.92c-2.5-2.169-4.916-4.43-7.42-6.593-1.742-1.5-3.236-.658-4.7.611-.989.86-2.366,2.467-3.086,2.235-3.135-1.008-6.883.666-9.615-2.513-.922-1.073-3.2-.984-5.052-1.478.032-.29.055-.783.145-1.265.983-5.259-.443-8.057-5.441-9.809-3.512-1.232-7.2-1.959-10.73-3.144a4.6,4.6,0,0,1-2.483-2.316c-.234-.547.8-1.636,1.494-2.908l-6.007-5.222c2.182-.472,3.74-.86,5.316-1.137,1.9-.334,2.473.749,2.838,2.441a23.042,23.042,0,0,0,2.026,6.038c.662,1.23,2.535,3.063,3.183,2.819,2.117-.8,4.5-2.036,5.713-3.827,1.943-2.874,2.29-3.3,5.628-1.691,1.484.717,3.093,1.174,4.635,1.772,5.3,2.054,10.7,3.881,15.825,6.3,1.947.918,3.287,3.167,4.832,4.874C1948.275-459.158,1949.025-458.041,1950.351-456.319Z" transform="translate(-514.258 -171.176)" fill="#51fec0"></path> <path id="Контур_13189" data-name="Контур 13189" d="M893.2-893.282c1.642,2.669,3.864,2.593,6.482,1.736a23.019,23.019,0,0,1,6.723-1.287,19.166,19.166,0,0,1,5.914,1.229c3.12,1,6.1,2.513,9.266,3.272,3.865.926,4.335,1.477,2.554,5.2,3.226,3.666,8.263,6.762,4.993,13.082L923.9-871.9l3.484,8.319-.631.679a25.737,25.737,0,0,0-3.194-1.12c-.889-.193-2.445-.406-2.65-.031a5.025,5.025,0,0,0-.3,3.092,24.581,24.581,0,0,0,1.267,3.747c-1.611.106-3.43.749-4.792.219a96.681,96.681,0,0,1-11.838-5.547c-2.38-1.321-2.1-2.745.395-4.022.278-.142.563-.274.852-.391,7.963-3.234,9.24-8.61,3.616-15.382a3.063,3.063,0,0,0-1.522-.953c-3.627-.894-7.268-1.731-10.913-2.55-2.031-.456-3.809-.555-4.963,1.857-.882,1.842-2.26,1.445-3.388-.063-2.678-3.576-2.607-4.167.978-7.03C891.2-891.787,892.115-892.458,893.2-893.282Z" transform="translate(-136.74 -16.288)" fill="#51fec0"></path> <path id="Контур_13190" data-name="Контур 13190" d="M1805.022-519.686c6.1,1.956,7.527,5.1,4.678,10.5a5.68,5.68,0,0,0,.166,6.4c1.123,1.719.8,3.114-.35,5.353-1.586,3.076-4.05,5.529-5.373,8.48-2.078,4.633-2.261,5.157-7.208,4.236-2.525-.471-5.186-.166-7.748-.5-1.26-.165-2.906-.656-3.563-1.579-2.49-3.493-4.345-7.292-3.973-11.835.172-2.086.91-2.958,2.949-2.006,1.948.908,2.977,1.043,3.623-1.706.658-2.8,2.379-5.372,3.778-7.966a2.844,2.844,0,0,1,1.893-1.42c4.852-.16,7.691-3.177,10.163-6.812A13.285,13.285,0,0,1,1805.022-519.686Z" transform="translate(-470.979 -155.941)" fill="#51fec0"></path> <path id="Контур_13191" data-name="Контур 13191" d="M1431.442-395.346c6.073-3.315,14.007-4.543,16.536-13.087,2.418,4.435,2.189,7.266,1.423,11.773-1.278,7.519-4.516,14.146-7.8,20.856-.919,1.878-.974,4.219-1.235,6.371-.451,3.713-2.162,5.621-5.94,6.289-1.217.215-2.447.358-3.6.523-4.325-3.42-3.653-8.306-3.8-12.9a2.549,2.549,0,0,1,1.289-1.912c2.556-1.117,3.049-3.3,3.107-5.644C1431.514-387.084,1431.442-391.09,1431.442-395.346Z" transform="translate(-338.434 -197.528)" fill="#51fec0"></path> <path id="Контур_13192" data-name="Контур 13192" d="M799.373-891.743c0,2.62.116,5.1-.081,7.551-.049.609-1.015,1.416-1.72,1.652a40.508,40.508,0,0,1-7.214,1.941c-1.926.264-3.948-.271-5.926-.257s-3.963.374-5.945.391c-3.291.029-6.7.431-9.841-.295-3.547-.822-2.555-4.174-2.281-6.693l-11.1-2.268-.377-.765c2.69-1.8,5.268-4.858,8.095-5.108,4.2-.371,9.064-1.625,12.9,2.026a17.039,17.039,0,0,0,4.737,3.527,11.019,11.019,0,0,0,5.536.735C790.561-889.9,794.911-890.892,799.373-891.743Z" transform="translate(-87.188 -15.233)" fill="#51fec0"></path> <path id="Контур_13193" data-name="Контур 13193" d="M1709.567-512.055c4.811.016,7.041,2.295,9.011,5.7a10.768,10.768,0,0,0,8.422,5.768,3.961,3.961,0,0,1,2.43,1.72c4.373,6.529,8.763,13.054,12.843,19.766.762,1.253.636,3.516.083,5-1.186,3.182-3.61,3.771-6.027,1.394a41.832,41.832,0,0,1-5.71-7.336c-3.909-6.114-7.5-12.434-11.447-18.52C1716.265-503.04,1712.99-507.277,1709.567-512.055Z" transform="translate(-444.052 -158.793)" fill="#51fec0"></path> </g> </svg> 