<?xml version="1.0" encoding="UTF-8"?> <svg xmlns="http://www.w3.org/2000/svg" width="20.765" height="20.852" viewBox="0 0 20.765 20.852"> <g id="Сгруппировать_251" data-name="Сгруппировать 251" transform="translate(0)"> <path id="Path_172" data-name="Path 172" d="M18.809,19.511-.709-.1-.1-.705,19.421,18.9Z" transform="translate(1.027 1.023)"></path> <path id="Path_172_-_Outline" data-name="Path 172 - Outline" d="M18.419,19.44-1.416-.487l.93-.926L19.349,18.514ZM-.78-.486l19.2,19.29.293-.292L-.487-.777Z" transform="translate(1.416 1.413)"></path> <path id="Path_171" data-name="Path 171" d="M-.1,19.114-.7,18.5,18.816-.713l.605.615L12.067,7.141Z" transform="translate(1.022 1.126)"></path> <path id="Path_171_-_Outline" data-name="Path 171 - Outline" d="M-.488,19.042l-.92-.935L18.43-1.42l.92.935Zm-.285-.93.29.295,19.2-18.9-.29-.295Z" transform="translate(1.412 1.516)"></path> </g> </svg> 